%TF.GenerationSoftware,KiCad,Pcbnew,9.0.0*%
%TF.CreationDate,2025-09-22T19:59:37-07:00*%
%TF.ProjectId,eDNA Tipping Bucket,65444e41-2054-4697-9070-696e67204275,rev?*%
%TF.SameCoordinates,Original*%
%TF.FileFunction,Copper,L1,Top*%
%TF.FilePolarity,Positive*%
%FSLAX46Y46*%
G04 Gerber Fmt 4.6, Leading zero omitted, Abs format (unit mm)*
G04 Created by KiCad (PCBNEW 9.0.0) date 2025-09-22 19:59:37*
%MOMM*%
%LPD*%
G01*
G04 APERTURE LIST*
G04 Aperture macros list*
%AMRoundRect*
0 Rectangle with rounded corners*
0 $1 Rounding radius*
0 $2 $3 $4 $5 $6 $7 $8 $9 X,Y pos of 4 corners*
0 Add a 4 corners polygon primitive as box body*
4,1,4,$2,$3,$4,$5,$6,$7,$8,$9,$2,$3,0*
0 Add four circle primitives for the rounded corners*
1,1,$1+$1,$2,$3*
1,1,$1+$1,$4,$5*
1,1,$1+$1,$6,$7*
1,1,$1+$1,$8,$9*
0 Add four rect primitives between the rounded corners*
20,1,$1+$1,$2,$3,$4,$5,0*
20,1,$1+$1,$4,$5,$6,$7,0*
20,1,$1+$1,$6,$7,$8,$9,0*
20,1,$1+$1,$8,$9,$2,$3,0*%
G04 Aperture macros list end*
%TA.AperFunction,SMDPad,CuDef*%
%ADD10RoundRect,0.250000X0.475000X-0.337500X0.475000X0.337500X-0.475000X0.337500X-0.475000X-0.337500X0*%
%TD*%
%TA.AperFunction,ComponentPad*%
%ADD11RoundRect,0.250000X-0.550000X-0.550000X0.550000X-0.550000X0.550000X0.550000X-0.550000X0.550000X0*%
%TD*%
%TA.AperFunction,ComponentPad*%
%ADD12C,1.600000*%
%TD*%
%TA.AperFunction,SMDPad,CuDef*%
%ADD13RoundRect,0.250000X0.450000X-0.350000X0.450000X0.350000X-0.450000X0.350000X-0.450000X-0.350000X0*%
%TD*%
%TA.AperFunction,SMDPad,CuDef*%
%ADD14RoundRect,0.250000X0.350000X0.450000X-0.350000X0.450000X-0.350000X-0.450000X0.350000X-0.450000X0*%
%TD*%
%TA.AperFunction,Conductor*%
%ADD15C,0.200000*%
%TD*%
G04 APERTURE END LIST*
D10*
%TO.P,C1,1*%
%TO.N,3.3V*%
X142125000Y-96537500D03*
%TO.P,C1,2*%
%TO.N,A4*%
X142125000Y-94462500D03*
%TD*%
D11*
%TO.P,J1,1,Pin_1*%
%TO.N,3.3V*%
X140050000Y-88100000D03*
D12*
%TO.P,J1,2,Pin_2*%
%TO.N,A4*%
X143650000Y-88100000D03*
%TO.P,J1,3,Pin_3*%
%TO.N,/GND*%
X147250000Y-88100000D03*
%TD*%
D13*
%TO.P,R1,1*%
%TO.N,3.3V*%
X145125000Y-96500000D03*
%TO.P,R1,2*%
%TO.N,Bckt_IN*%
X145125000Y-94500000D03*
%TD*%
D11*
%TO.P,J2,1,Pin_1*%
%TO.N,Bckt_IN*%
X145850000Y-102300000D03*
D12*
%TO.P,J2,2,Pin_2*%
%TO.N,/GND*%
X149450000Y-102300000D03*
%TD*%
D14*
%TO.P,R2,1*%
%TO.N,Bckt_IN*%
X144750000Y-91150000D03*
%TO.P,R2,2*%
%TO.N,A4*%
X142750000Y-91150000D03*
%TD*%
D15*
%TO.N,A4*%
X142700000Y-89050000D02*
X142700000Y-93150000D01*
X142700000Y-93150000D02*
X142125000Y-93725000D01*
X142125000Y-93725000D02*
X142125000Y-94462500D01*
X143825000Y-88100000D02*
X143800000Y-88100000D01*
X143650000Y-88100000D02*
X142700000Y-89050000D01*
%TO.N,3.3V*%
X144625000Y-97000000D02*
X145125000Y-96500000D01*
%TO.N,Bckt_IN*%
X145975000Y-94500000D02*
X146725000Y-95250000D01*
X144700000Y-91150000D02*
X144700000Y-92825000D01*
X145125000Y-94500000D02*
X145975000Y-94500000D01*
X145125000Y-93250000D02*
X145125000Y-94500000D01*
X144700000Y-92825000D02*
X145125000Y-93250000D01*
X146725000Y-95250000D02*
X146725000Y-101425000D01*
X146725000Y-101425000D02*
X145850000Y-102300000D01*
%TD*%
%TA.AperFunction,Conductor*%
%TO.N,3.3V*%
G36*
X141568039Y-86919685D02*
G01*
X141613794Y-86972489D01*
X141625000Y-87024000D01*
X141625000Y-93259967D01*
X141605315Y-93327006D01*
X141552511Y-93372761D01*
X141513606Y-93383325D01*
X141497201Y-93385001D01*
X141497200Y-93385001D01*
X141330668Y-93440185D01*
X141330663Y-93440187D01*
X141181342Y-93532289D01*
X141057289Y-93656342D01*
X140965187Y-93805663D01*
X140965186Y-93805666D01*
X140910001Y-93972203D01*
X140910001Y-93972204D01*
X140910000Y-93972204D01*
X140899500Y-94074983D01*
X140899500Y-94850001D01*
X140899501Y-94850019D01*
X140910000Y-94952796D01*
X140910001Y-94952799D01*
X140915070Y-94968095D01*
X140965186Y-95119334D01*
X141057288Y-95268656D01*
X141181344Y-95392712D01*
X141330666Y-95484814D01*
X141497203Y-95539999D01*
X141599991Y-95550500D01*
X142650008Y-95550499D01*
X142650016Y-95550498D01*
X142650019Y-95550498D01*
X142706302Y-95544748D01*
X142752797Y-95539999D01*
X142854512Y-95506294D01*
X142893516Y-95500000D01*
X144264057Y-95500000D01*
X144329153Y-95518461D01*
X144355659Y-95534810D01*
X144355660Y-95534810D01*
X144355666Y-95534814D01*
X144522203Y-95589999D01*
X144624991Y-95600500D01*
X145625008Y-95600499D01*
X145625016Y-95600498D01*
X145625019Y-95600498D01*
X145681302Y-95594748D01*
X145727797Y-95589999D01*
X145894334Y-95534814D01*
X145908722Y-95525938D01*
X145920847Y-95518461D01*
X145937404Y-95513765D01*
X145951008Y-95505023D01*
X145985943Y-95500000D01*
X146000500Y-95500000D01*
X146067539Y-95519685D01*
X146113294Y-95572489D01*
X146124500Y-95624000D01*
X146124500Y-98126000D01*
X146104815Y-98193039D01*
X146052011Y-98238794D01*
X146000500Y-98250000D01*
X138749000Y-98250000D01*
X138681961Y-98230315D01*
X138636206Y-98177511D01*
X138625000Y-98126000D01*
X138625000Y-87024000D01*
X138644685Y-86956961D01*
X138697489Y-86911206D01*
X138749000Y-86900000D01*
X141501000Y-86900000D01*
X141568039Y-86919685D01*
G37*
%TD.AperFunction*%
%TD*%
M02*
