%TF.GenerationSoftware,KiCad,Pcbnew,9.0.0*%
%TF.CreationDate,2025-09-22T19:59:37-07:00*%
%TF.ProjectId,eDNA Tipping Bucket,65444e41-2054-4697-9070-696e67204275,rev?*%
%TF.SameCoordinates,Original*%
%TF.FileFunction,Legend,Bot*%
%TF.FilePolarity,Positive*%
%FSLAX46Y46*%
G04 Gerber Fmt 4.6, Leading zero omitted, Abs format (unit mm)*
G04 Created by KiCad (PCBNEW 9.0.0) date 2025-09-22 19:59:37*
%MOMM*%
%LPD*%
G01*
G04 APERTURE LIST*
%ADD10C,0.100000*%
G04 APERTURE END LIST*
D10*
X153205752Y-93708646D02*
X153872419Y-93946741D01*
X153872419Y-93946741D02*
X153205752Y-94184836D01*
X153777180Y-94565789D02*
X153824800Y-94613408D01*
X153824800Y-94613408D02*
X153872419Y-94565789D01*
X153872419Y-94565789D02*
X153824800Y-94518170D01*
X153824800Y-94518170D02*
X153777180Y-94565789D01*
X153777180Y-94565789D02*
X153872419Y-94565789D01*
X152967657Y-94994360D02*
X152920038Y-95041979D01*
X152920038Y-95041979D02*
X152872419Y-95137217D01*
X152872419Y-95137217D02*
X152872419Y-95375312D01*
X152872419Y-95375312D02*
X152920038Y-95470550D01*
X152920038Y-95470550D02*
X152967657Y-95518169D01*
X152967657Y-95518169D02*
X153062895Y-95565788D01*
X153062895Y-95565788D02*
X153158133Y-95565788D01*
X153158133Y-95565788D02*
X153300990Y-95518169D01*
X153300990Y-95518169D02*
X153872419Y-94946741D01*
X153872419Y-94946741D02*
X153872419Y-95565788D01*
X152824800Y-96708645D02*
X154110514Y-95851503D01*
X152967657Y-96994360D02*
X152920038Y-97041979D01*
X152920038Y-97041979D02*
X152872419Y-97137217D01*
X152872419Y-97137217D02*
X152872419Y-97375312D01*
X152872419Y-97375312D02*
X152920038Y-97470550D01*
X152920038Y-97470550D02*
X152967657Y-97518169D01*
X152967657Y-97518169D02*
X153062895Y-97565788D01*
X153062895Y-97565788D02*
X153158133Y-97565788D01*
X153158133Y-97565788D02*
X153300990Y-97518169D01*
X153300990Y-97518169D02*
X153872419Y-96946741D01*
X153872419Y-96946741D02*
X153872419Y-97565788D01*
X152872419Y-98422931D02*
X152872419Y-98232455D01*
X152872419Y-98232455D02*
X152920038Y-98137217D01*
X152920038Y-98137217D02*
X152967657Y-98089598D01*
X152967657Y-98089598D02*
X153110514Y-97994360D01*
X153110514Y-97994360D02*
X153300990Y-97946741D01*
X153300990Y-97946741D02*
X153681942Y-97946741D01*
X153681942Y-97946741D02*
X153777180Y-97994360D01*
X153777180Y-97994360D02*
X153824800Y-98041979D01*
X153824800Y-98041979D02*
X153872419Y-98137217D01*
X153872419Y-98137217D02*
X153872419Y-98327693D01*
X153872419Y-98327693D02*
X153824800Y-98422931D01*
X153824800Y-98422931D02*
X153777180Y-98470550D01*
X153777180Y-98470550D02*
X153681942Y-98518169D01*
X153681942Y-98518169D02*
X153443847Y-98518169D01*
X153443847Y-98518169D02*
X153348609Y-98470550D01*
X153348609Y-98470550D02*
X153300990Y-98422931D01*
X153300990Y-98422931D02*
X153253371Y-98327693D01*
X153253371Y-98327693D02*
X153253371Y-98137217D01*
X153253371Y-98137217D02*
X153300990Y-98041979D01*
X153300990Y-98041979D02*
X153348609Y-97994360D01*
X153348609Y-97994360D02*
X153443847Y-97946741D01*
X152824800Y-99661026D02*
X154110514Y-98803884D01*
X152967657Y-99946741D02*
X152920038Y-99994360D01*
X152920038Y-99994360D02*
X152872419Y-100089598D01*
X152872419Y-100089598D02*
X152872419Y-100327693D01*
X152872419Y-100327693D02*
X152920038Y-100422931D01*
X152920038Y-100422931D02*
X152967657Y-100470550D01*
X152967657Y-100470550D02*
X153062895Y-100518169D01*
X153062895Y-100518169D02*
X153158133Y-100518169D01*
X153158133Y-100518169D02*
X153300990Y-100470550D01*
X153300990Y-100470550D02*
X153872419Y-99899122D01*
X153872419Y-99899122D02*
X153872419Y-100518169D01*
X152872419Y-101137217D02*
X152872419Y-101232455D01*
X152872419Y-101232455D02*
X152920038Y-101327693D01*
X152920038Y-101327693D02*
X152967657Y-101375312D01*
X152967657Y-101375312D02*
X153062895Y-101422931D01*
X153062895Y-101422931D02*
X153253371Y-101470550D01*
X153253371Y-101470550D02*
X153491466Y-101470550D01*
X153491466Y-101470550D02*
X153681942Y-101422931D01*
X153681942Y-101422931D02*
X153777180Y-101375312D01*
X153777180Y-101375312D02*
X153824800Y-101327693D01*
X153824800Y-101327693D02*
X153872419Y-101232455D01*
X153872419Y-101232455D02*
X153872419Y-101137217D01*
X153872419Y-101137217D02*
X153824800Y-101041979D01*
X153824800Y-101041979D02*
X153777180Y-100994360D01*
X153777180Y-100994360D02*
X153681942Y-100946741D01*
X153681942Y-100946741D02*
X153491466Y-100899122D01*
X153491466Y-100899122D02*
X153253371Y-100899122D01*
X153253371Y-100899122D02*
X153062895Y-100946741D01*
X153062895Y-100946741D02*
X152967657Y-100994360D01*
X152967657Y-100994360D02*
X152920038Y-101041979D01*
X152920038Y-101041979D02*
X152872419Y-101137217D01*
X152967657Y-101851503D02*
X152920038Y-101899122D01*
X152920038Y-101899122D02*
X152872419Y-101994360D01*
X152872419Y-101994360D02*
X152872419Y-102232455D01*
X152872419Y-102232455D02*
X152920038Y-102327693D01*
X152920038Y-102327693D02*
X152967657Y-102375312D01*
X152967657Y-102375312D02*
X153062895Y-102422931D01*
X153062895Y-102422931D02*
X153158133Y-102422931D01*
X153158133Y-102422931D02*
X153300990Y-102375312D01*
X153300990Y-102375312D02*
X153872419Y-101803884D01*
X153872419Y-101803884D02*
X153872419Y-102422931D01*
X152872419Y-103327693D02*
X152872419Y-102851503D01*
X152872419Y-102851503D02*
X153348609Y-102803884D01*
X153348609Y-102803884D02*
X153300990Y-102851503D01*
X153300990Y-102851503D02*
X153253371Y-102946741D01*
X153253371Y-102946741D02*
X153253371Y-103184836D01*
X153253371Y-103184836D02*
X153300990Y-103280074D01*
X153300990Y-103280074D02*
X153348609Y-103327693D01*
X153348609Y-103327693D02*
X153443847Y-103375312D01*
X153443847Y-103375312D02*
X153681942Y-103375312D01*
X153681942Y-103375312D02*
X153777180Y-103327693D01*
X153777180Y-103327693D02*
X153824800Y-103280074D01*
X153824800Y-103280074D02*
X153872419Y-103184836D01*
X153872419Y-103184836D02*
X153872419Y-102946741D01*
X153872419Y-102946741D02*
X153824800Y-102851503D01*
X153824800Y-102851503D02*
X153777180Y-102803884D01*
M02*
