%TF.GenerationSoftware,KiCad,Pcbnew,9.0.0*%
%TF.CreationDate,2025-09-22T19:59:37-07:00*%
%TF.ProjectId,eDNA Tipping Bucket,65444e41-2054-4697-9070-696e67204275,rev?*%
%TF.SameCoordinates,Original*%
%TF.FileFunction,Copper,L2,Bot*%
%TF.FilePolarity,Positive*%
%FSLAX46Y46*%
G04 Gerber Fmt 4.6, Leading zero omitted, Abs format (unit mm)*
G04 Created by KiCad (PCBNEW 9.0.0) date 2025-09-22 19:59:37*
%MOMM*%
%LPD*%
G01*
G04 APERTURE LIST*
G04 Aperture macros list*
%AMRoundRect*
0 Rectangle with rounded corners*
0 $1 Rounding radius*
0 $2 $3 $4 $5 $6 $7 $8 $9 X,Y pos of 4 corners*
0 Add a 4 corners polygon primitive as box body*
4,1,4,$2,$3,$4,$5,$6,$7,$8,$9,$2,$3,0*
0 Add four circle primitives for the rounded corners*
1,1,$1+$1,$2,$3*
1,1,$1+$1,$4,$5*
1,1,$1+$1,$6,$7*
1,1,$1+$1,$8,$9*
0 Add four rect primitives between the rounded corners*
20,1,$1+$1,$2,$3,$4,$5,0*
20,1,$1+$1,$4,$5,$6,$7,0*
20,1,$1+$1,$6,$7,$8,$9,0*
20,1,$1+$1,$8,$9,$2,$3,0*%
G04 Aperture macros list end*
%TA.AperFunction,ComponentPad*%
%ADD10RoundRect,0.250000X-0.550000X-0.550000X0.550000X-0.550000X0.550000X0.550000X-0.550000X0.550000X0*%
%TD*%
%TA.AperFunction,ComponentPad*%
%ADD11C,1.600000*%
%TD*%
G04 APERTURE END LIST*
D10*
%TO.P,J1,1,Pin_1*%
%TO.N,3.3V*%
X140050000Y-88100000D03*
D11*
%TO.P,J1,2,Pin_2*%
%TO.N,A4*%
X143650000Y-88100000D03*
%TO.P,J1,3,Pin_3*%
%TO.N,/GND*%
X147250000Y-88100000D03*
%TD*%
D10*
%TO.P,J2,1,Pin_1*%
%TO.N,Bckt_IN*%
X145850000Y-102300000D03*
D11*
%TO.P,J2,2,Pin_2*%
%TO.N,/GND*%
X149450000Y-102300000D03*
%TD*%
%TA.AperFunction,Conductor*%
%TO.N,/GND*%
G36*
X150568039Y-87019685D02*
G01*
X150613794Y-87072489D01*
X150625000Y-87124000D01*
X150625000Y-88601352D01*
X150620775Y-88633445D01*
X150581161Y-88781284D01*
X150549500Y-89021783D01*
X150549500Y-89264360D01*
X150581161Y-89504859D01*
X150620775Y-89652698D01*
X150625000Y-89684791D01*
X150625000Y-103376000D01*
X150605315Y-103443039D01*
X150552511Y-103488794D01*
X150501000Y-103500000D01*
X147670726Y-103500000D01*
X147603687Y-103480315D01*
X147557932Y-103427511D01*
X147547988Y-103358353D01*
X147557826Y-103324720D01*
X147585096Y-103264683D01*
X147640096Y-103046412D01*
X147650500Y-102914217D01*
X147650499Y-101685784D01*
X147640096Y-101553588D01*
X147585096Y-101335317D01*
X147492007Y-101130374D01*
X147363819Y-100945346D01*
X147204654Y-100786181D01*
X147204650Y-100786178D01*
X147204645Y-100786174D01*
X147019632Y-100657997D01*
X147019630Y-100657995D01*
X147019626Y-100657993D01*
X146814683Y-100564904D01*
X146814681Y-100564903D01*
X146814678Y-100564902D01*
X146596420Y-100509905D01*
X146596414Y-100509904D01*
X146489270Y-100501471D01*
X146423982Y-100476586D01*
X146382511Y-100420355D01*
X146375000Y-100377853D01*
X146375000Y-87124000D01*
X146394685Y-87056961D01*
X146447489Y-87011206D01*
X146499000Y-87000000D01*
X150501000Y-87000000D01*
X150568039Y-87019685D01*
G37*
%TD.AperFunction*%
%TD*%
M02*
